<svg width="24" height="24" viewBox="0 0 24 24" xmlns="http://www.w3.org/2000/svg">
<path d="M16.5189 16.5013C16.6939 16.3648 16.8526 16.2061 17.1701 15.8886L21.1275 11.9312C21.2231 11.8356 21.1793 11.6708 21.0515 11.6264C20.5844 11.4644 19.9767 11.1601 19.4083 10.5917C18.8399 10.0233 18.5356 9.4156 18.3736 8.94848C18.3292 8.82065 18.1644 8.77686 18.0688 8.87253L14.1114 12.8299C13.7939 13.1474 13.6352 13.3061 13.4987 13.4811C13.3377 13.6876 13.1996 13.9109 13.087 14.1473C12.9915 14.3476 12.9205 14.5606 12.7786 14.9865L12.5951 15.5368L12.3034 16.4118L12.0299 17.2323C11.9601 17.4419 12.0146 17.6729 12.1708 17.8292C12.3271 17.9854 12.5581 18.0399 12.7677 17.9701L13.5882 17.6966L14.4632 17.4049L15.0135 17.2214C15.4393 17.0795 15.6524 17.0085 15.8527 16.913C16.0891 16.8004 16.3124 16.6623 16.5189 16.5013Z" fill="auto"/>
<path d="M22.3663 10.6922C23.211 9.84754 23.211 8.47812 22.3663 7.63348C21.5217 6.78884 20.1523 6.78884 19.3076 7.63348L19.1804 7.76071C19.0576 7.88348 19.002 8.05496 19.0327 8.22586C19.052 8.33336 19.0877 8.49053 19.1528 8.67807C19.2829 9.05314 19.5286 9.54549 19.9915 10.0083C20.4543 10.4712 20.9467 10.7169 21.3217 10.847C21.5093 10.9121 21.6664 10.9478 21.7739 10.9671C21.9448 10.9978 22.1163 10.9422 22.2391 10.8194L22.3663 10.6922Z" fill="auto"/>
<path fill-rule="evenodd" clip-rule="evenodd" d="M4.17157 3.17157C3 4.34315 3 6.22876 3 10V14C3 17.7712 3 19.6569 4.17157 20.8284C5.34315 22 7.22876 22 11 22H13C16.7712 22 18.6569 22 19.8284 20.8284C20.9812 19.6756 20.9997 17.8316 21 14.1801L18.1817 16.9984C17.9119 17.2683 17.691 17.4894 17.4415 17.6841C17.1491 17.9121 16.8328 18.1076 16.4981 18.2671C16.2124 18.4032 15.9159 18.502 15.5538 18.6225L13.2421 19.3931C12.4935 19.6426 11.6682 19.4478 11.1102 18.8898C10.5523 18.3318 10.3574 17.5065 10.607 16.7579L10.8805 15.9375L11.3556 14.5121L11.3775 14.4463C11.4981 14.0842 11.5968 13.7876 11.7329 13.5019C11.8924 13.1672 12.0879 12.8509 12.316 12.5586C12.5106 12.309 12.7317 12.0881 13.0017 11.8183L17.0081 7.81188L18.12 6.70004L18.2472 6.57282C18.9626 5.85741 19.9003 5.49981 20.838 5.5C20.6867 4.46945 20.3941 3.73727 19.8284 3.17157C18.6569 2 16.7712 2 13 2H11C7.22876 2 5.34315 2 4.17157 3.17157ZM7.25 9C7.25 8.58579 7.58579 8.25 8 8.25H14.5C14.9142 8.25 15.25 8.58579 15.25 9C15.25 9.41421 14.9142 9.75 14.5 9.75H8C7.58579 9.75 7.25 9.41421 7.25 9ZM7.25 13C7.25 12.5858 7.58579 12.25 8 12.25H10.5C10.9142 12.25 11.25 12.5858 11.25 13C11.25 13.4142 10.9142 13.75 10.5 13.75H8C7.58579 13.75 7.25 13.4142 7.25 13ZM7.25 17C7.25 16.5858 7.58579 16.25 8 16.25H9.5C9.91421 16.25 10.25 16.5858 10.25 17C10.25 17.4142 9.91421 17.75 9.5 17.75H8C7.58579 17.75 7.25 17.4142 7.25 17Z" fill="auto"/>
</svg>
