<svg width="22" height="24" viewBox="0 0 22 24" xmlns="http://www.w3.org/2000/svg">
<path fill-rule="evenodd" clip-rule="evenodd" d="M0.366699 18.4394H3.1167V7.26831L0.421699 7.68738L0.366699 4.14831L3.1167 3.70708V0.531692C3.1167 0.238154 3.3532 0 3.6447 0H8.68453C8.97603 0 9.21253 0.238154 9.21253 0.531692V2.73046L19.1327 1.14092L19.6937 4.68185L18.5405 4.86092V5.81723L20.6195 8.11015C20.6544 8.14708 20.68 8.18954 20.702 8.232H21.3455C21.406 8.232 21.4555 8.28185 21.4555 8.34277V10.8535C21.4555 10.9145 21.406 10.9643 21.3455 10.9643H14.2744C14.2139 10.9643 14.1644 10.9145 14.1644 10.8535V8.34461C14.1644 8.28369 14.2139 8.23385 14.2744 8.23385H14.9399C14.9637 8.19323 14.9949 8.15446 15.0315 8.11938L17.5304 5.78585V5.01969L9.2162 6.31569V18.4394H12.0267V22.6375H0.366699V18.4394ZM4.17453 3.53723L5.9932 3.24554L4.17453 1.80369V3.53723ZM7.35353 3.02954L8.15653 2.90031V1.06523H4.8767L7.35353 3.02954ZM8.15653 6.48185L7.23987 6.624L8.15653 7.35138V6.48185ZM5.8722 6.83815L4.1727 7.10215V7.80185H7.0877L5.8722 6.83815ZM16.3754 8.23385H19.3765L17.9997 6.71631L16.3754 8.23385ZM5.37537 16.1723L8.15653 18.3766V16.1723H5.37537ZM6.60003 18.4394L4.17453 16.5175V18.4412H6.60003V18.4394ZM5.37537 12.4985L8.15653 14.7028V12.4985H5.37537ZM4.17453 15.1532H7.08953L4.17453 12.8437V15.1532ZM5.37353 8.82092L8.15653 11.0271V8.82092H5.37353ZM4.17453 11.4775H7.08953L4.17453 9.168V11.4775ZM13.9389 12.768C13.9389 12.6406 14.0434 12.5372 14.168 12.5372H21.4629C21.5894 12.5372 21.692 12.6425 21.692 12.768C21.692 18.2437 21.6902 17.2098 21.6975 22.6855H13.9242L13.9389 12.768ZM18.3095 18.4855H19.8019C19.8477 18.4855 19.8844 18.5243 19.8844 18.5686V20.3889C19.8844 20.4351 19.8459 20.472 19.8019 20.472H18.3095C18.2637 20.472 18.227 20.4332 18.227 20.3889V18.5686C18.227 18.5225 18.2655 18.4855 18.3095 18.4855ZM15.7814 18.4855H17.2737C17.3195 18.4855 17.3562 18.5243 17.3562 18.5686V20.3889C17.3562 20.4351 17.3177 20.472 17.2737 20.472H15.7814C15.7355 20.472 15.6989 20.4332 15.6989 20.3889V18.5686C15.6989 18.5225 15.7374 18.4855 15.7814 18.4855ZM18.3095 15.1274H19.8019C19.8477 15.1274 19.8844 15.1662 19.8844 15.2105V17.0308C19.8844 17.0769 19.8459 17.1138 19.8019 17.1138H18.3095C18.2637 17.1138 18.227 17.0751 18.227 17.0308V15.2105C18.227 15.1662 18.2655 15.1274 18.3095 15.1274ZM15.7814 15.1274H17.2737C17.3195 15.1274 17.3562 15.1662 17.3562 15.2105V17.0308C17.3562 17.0769 17.3177 17.1138 17.2737 17.1138H15.7814C15.7355 17.1138 15.6989 17.0751 15.6989 17.0308V15.2105C15.6989 15.1662 15.7374 15.1274 15.7814 15.1274ZM15.1745 13.6154H20.4307C20.5205 13.6154 20.5957 13.7058 20.5957 13.8148V21.1957C20.5957 21.3046 20.5205 21.3951 20.4307 21.3951H15.1745C15.0847 21.3951 15.0095 21.3046 15.0095 21.1957V13.8148C15.0095 13.7058 15.0847 13.6154 15.1745 13.6154Z" fill="auto"/>
</svg>
