<svg width="24" height="24" viewBox="0 0 24 24" xmlns="http://www.w3.org/2000/svg">
<path d="M21.925 7.05019C21.925 6.97519 22 6.9002 22 6.8252C22 6.8252 22 6.82519 22 6.7502C22 6.7502 22 6.75019 22 6.67519C22 6.60019 22 6.5252 22 6.4502C22 6.4502 22 6.4502 22 6.3752C22 6.3002 21.925 6.2252 21.925 6.1502C21.85 6.0752 21.85 6.0752 21.775 6.0002L13.525 0.750195C13.3 0.600195 12.925 0.600195 12.7 0.750195L2.95 7.5002L2.875 7.5752C2.875 7.5752 2.875 7.5752 2.8 7.5752C2.725 7.6502 2.725 7.72519 2.65 7.80019C2.65 7.80019 2.65 7.8002 2.65 7.8752C2.5 8.10019 2.5 8.1752 2.5 8.2502V12.7502V17.2502C2.5 17.4752 2.65 17.7752 2.875 17.8502L11.125 23.1002C11.275 23.1752 11.425 23.2502 11.5 23.2502C11.65 23.2502 11.8 23.1752 11.95 23.1002L21.7 16.3502C21.85 16.2002 22 16.0502 22 15.8252C22 15.6002 21.925 15.3752 21.775 15.2252C21.1 14.5502 20.95 13.5752 21.4 12.6752L21.925 11.5502C21.925 11.4752 22 11.4002 22 11.3252V11.2502C22 11.1752 22 11.0252 21.925 10.9502V10.8752C21.925 10.8002 21.85 10.7252 21.775 10.6502C21.1 9.97519 20.95 9.0002 21.4 8.10019L21.925 7.05019ZM20.2 11.1002L11.5 17.1002L4 12.3752V9.67519L11.125 14.1752C11.275 14.2502 11.425 14.3252 11.5 14.3252C11.65 14.3252 11.8 14.2502 11.95 14.1752L19.675 8.85019C19.6 9.60019 19.75 10.3502 20.2 11.1002ZM11.5 21.6002L4 16.8752V14.1752L11.125 18.6752C11.275 18.7502 11.425 18.8252 11.5 18.8252C11.65 18.8252 11.8 18.7502 11.95 18.6752L19.675 13.3502C19.6 14.1752 19.75 15.0002 20.2 15.6752L11.5 21.6002Z" fill='auto'/>
</svg>
